<?xml version="1.0" standalone="no"?>
<!DOCTYPE svg PUBLIC "-//W3C//DTD SVG 20010904//EN"
 "http://www.w3.org/TR/2001/REC-SVG-20010904/DTD/svg10.dtd">
<svg version="1.0" xmlns="http://www.w3.org/2000/svg"
 width="768.000000pt" height="768.000000pt" viewBox="0 0 768.000000 768.000000"
 preserveAspectRatio="xMidYMid meet">
<metadata>
Created by potrace 1.14, written by Peter Selinger 2001-2017
</metadata>
<g transform="translate(0.000000,768.000000) scale(0.100000,-0.100000)"
fill="#000000" stroke="none">
<path d="M810 3830 l0 -3600 955 0 955 0 0 1426 0 1426 323 -5 c350 -5 400
-11 547 -68 242 -93 422 -306 594 -701 90 -206 171 -442 416 -1203 127 -396
242 -755 256 -798 l26 -77 1000 0 c948 0 1000 1 993 17 -4 10 -155 439 -337
953 -181 514 -359 1009 -395 1100 -36 91 -105 273 -155 405 -158 423 -208 535
-305 684 -120 184 -266 298 -463 361 -75 24 -76 43 -3 59 32 7 112 31 178 53
563 187 920 562 1065 1121 39 151 57 270 70 465 36 537 -111 992 -425 1321
-165 172 -314 279 -548 391 -267 128 -507 194 -897 247 -113 15 -307 17 -1987
20 l-1863 4 0 -3601z m2777 2229 c433 -36 735 -153 895 -345 102 -122 155
-309 144 -504 -21 -382 -228 -615 -632 -711 -192 -45 -276 -51 -786 -56 l-488
-5 0 816 0 816 369 0 c204 0 428 -5 498 -11z"/>
</g>
</svg>
